<svg xmlns="http://www.w3.org/2000/svg" viewBox="0 0 1440 120" preserveAspectRatio="none">
  <defs>
    <linearGradient id="greenGoldGradient" x1="0%" y1="0%" x2="100%" y2="0%">
      <stop offset="0%" style="stop-color:#014421" />
      <stop offset="50%" style="stop-color:#D4AF37" />
      <stop offset="100%" style="stop-color:#014421" />
    </linearGradient>
  </defs>
  <path fill="url(#greenGoldGradient)" d="M0,64L48,69.3C96,75,192,85,288,80C384,75,480,53,576,58.7C672,64,768,96,864,96C960,96,1056,64,1152,53.3C1248,43,1344,53,1392,58.7L1440,64L1440,120L1392,120C1344,120,1248,120,1152,120C1056,120,960,120,864,120C768,120,672,120,576,120C480,120,384,120,288,120C192,120,96,120,48,120L0,120Z"></path>
</svg>
